<svg data-v-0dd9719b="" version="1.0" xmlns="http://www.w3.org/2000/svg" xmlns:xlink="http://www.w3.org/1999/xlink" width="100%" height="100%" viewBox="0 0 340.000000 250.000000" preserveAspectRatio="xMidYMid meet" color-interpolation-filters="sRGB" style="margin: auto;"> <rect data-v-0dd9719b="" x="0" y="0" width="100%" height="100%" fill="#fff" fill-opacity="1" class="background"></rect> <rect data-v-0dd9719b="" x="0" y="0" width="100%" height="100%" fill="url(#watermark)" fill-opacity="1" class="watermarklayer"></rect> <g data-v-0dd9719b="" fill="#333" class="icon-text-wrapper icon-svg-group iconsvg" transform="translate(68,24.102806091308594)"><g class="iconsvg-imagesvg" transform="translate(0,0)"><g><rect fill="#333" fill-opacity="0" stroke-width="2" x="0" y="0" width="204.0000000000001" height="201.79438734630497" class="image-rect"></rect> <svg x="0" y="0" width="204.0000000000001" height="201.79438734630497" filtersec="colorsb6026113590" class="image-svg-svg primary" style="overflow: visible;"><svg xmlns="http://www.w3.org/2000/svg" viewBox="-0.03295197710394859 9.5367431640625e-7 164.80642700195312 163.02438354492188"><path d="M50.57 157.45c2-4 4.14-7.85 5.72-11.9a52.86 52.86 0 0 0 2.57-30.27 54.21 54.21 0 0 0-20-32.59 53.62 53.62 0 0 0-25.46-11 48.33 48.33 0 0 0-11.83-.58c-.94.09-1.14-.26-1-1.14a85.83 85.83 0 0 1 4.61-18.22 1.84 1.84 0 0 1 2.13-1.44c21.29 1 39.28 9.21 53.7 25a73.74 73.74 0 0 1 17.67 33.82 74.45 74.45 0 0 1-.17 34.46 80.19 80.19 0 0 1-6.85 18.23 1.8 1.8 0 0 1-2.23 1.11 82.83 82.83 0 0 1-18.17-5.07 4.16 4.16 0 0 1-.69-.41z" fill="#3742fb"></path><path d="M114.5 157.39c-1.47.58-2.86 1.18-4.28 1.68A85.17 85.17 0 0 1 94.78 163c-.94.14-1.24-.34-1.59-1a76.46 76.46 0 0 1-6.69-17.12 74.18 74.18 0 0 1-2.21-23.92 75 75 0 0 1 18.1-44.2 74.16 74.16 0 0 1 29.94-21.25 76.62 76.62 0 0 1 25.2-5.19 1.74 1.74 0 0 1 2 1.34 85 85 0 0 1 4.66 18.16c.15 1-.11 1.3-1.13 1.26-20.49-.67-36.91 7.21-48.65 24-8.25 11.81-11.11 25.11-8.92 39.43a54.65 54.65 0 0 0 8.43 21.86c.14.25.3.54.58 1.02z" fill="#1f92fd"></path><path d="M32.48 15.6c10.82 19.78 27.1 31.13 49.88 31.13s39-11.31 49.88-31.13a10.38 10.38 0 0 1 1 .64 83.87 83.87 0 0 1 13.45 13.25 1.43 1.43 0 0 1 .17 2 75.06 75.06 0 0 1-41 32.3A73.09 73.09 0 0 1 67.41 66C46 61.54 29.61 49.88 17.88 31.52c-.4-.63-.62-1.15 0-1.86A85.19 85.19 0 0 1 31.77 16a5.66 5.66 0 0 1 .71-.4z" fill="#44D9E6"></path><path d="M145.12 135c-.62.73-1.13 1.36-1.67 1.95A84.76 84.76 0 0 1 129.74 149a1.46 1.46 0 0 1-2.06-.07c-10.46-8.3-15.5-19.13-14.19-32.39 1.39-14.08 9-24.19 21.92-29.86 9.19-4 18.61-3.81 28-.11a1.8 1.8 0 0 1 1.3 2.22 82.3 82.3 0 0 1-4.1 19.19c-.08.22-.19.43-.37.82-5-4.23-10.53-5.45-16.61-3.09a14.72 14.72 0 0 0-8.36 8.18c-3.19 7.25-.55 17.33 9.85 21.11z" fill="#1f92fd"></path><path d="M19.75 134.94a15.68 15.68 0 0 0 9.28-22 15.88 15.88 0 0 0-6.62-6.64 15.35 15.35 0 0 0-9.41-1.58A16.27 16.27 0 0 0 4.35 109c-.95-3.46-2-6.59-2.64-9.8C1 95.8.63 92.3.05 88.85a1.78 1.78 0 0 1 1.25-2.26A36.21 36.21 0 0 1 38 148.2a5.19 5.19 0 0 1-1.3.93 1.79 1.79 0 0 1-1.42 0 79.89 79.89 0 0 1-15.09-13.47 4.51 4.51 0 0 1-.44-.72z" fill="#3742fb"></path><path d="M67.27.18c-1 5.72.23 10.68 4.34 14.73a14.65 14.65 0 0 0 10.22 4.35 14.9 14.9 0 0 0 12.48-5.65c3.23-3.9 4-8.46 3.12-13.61a59.15 59.15 0 0 1 5.91 1.35c4.6 1.55 9.14 3.26 13.71 4.9a1.65 1.65 0 0 1 1.2 2.16c-2.49 15.25-11 25.48-25.72 30.11C74.08 44.34 53.93 33.6 48 15.14c-.7-2.31-1-4.73-1.58-7.14a1.2 1.2 0 0 1 .79-1.56A80.64 80.64 0 0 1 66.55.18a5.38 5.38 0 0 1 .72 0z" fill="#44D9E6"></path></svg></svg> <!----></g></g> <g transform="translate(102,208.7943878173828)"><g data-gra="path-name" fill-rule="" class="tp-name iconsvg-namesvg"><g transform="scale(1)"><g><path d="" transform="translate(0, 0)"></path></g> <!----> <!----> <!----> <!----> <!----> <!----> <!----></g></g> <!----></g></g><defs v-gra="od"></defs></svg>